<svg width="40" height="40" viewBox="0 0 40 40" fill="none" xmlns="http://www.w3.org/2000/svg">
<path d="M10.3047 2.02302C11.968 0.728198 14.1439 0.0117188 16.3064 0.0117188C17.5992 0.0117188 18.6464 0.455918 19.4396 1.16146C19.654 1.3524 19.8448 1.55748 20.0142 1.77048C20.1836 1.55748 20.3742 1.3524 20.5888 1.16146C21.3818 0.455918 22.429 0.0117188 23.7218 0.0117188C25.8844 0.0117188 28.0604 0.728198 29.7236 2.02302C31.0176 3.0304 32.032 4.41904 32.4294 6.09876C33.2698 6.23768 34.0164 6.66602 34.6202 7.23262C35.5818 8.13492 36.2656 9.43846 36.6962 10.7801C37.1334 12.142 37.3522 13.6729 37.2862 15.1425C37.2524 15.8948 37.1422 16.6616 36.9312 17.3958C36.9752 17.4148 37.019 17.4346 37.0626 17.455C37.803 17.8042 38.4014 18.3508 38.8516 19.0762C39.7018 20.4456 40.001 22.4188 40.001 24.9326C40.001 27.8216 38.8968 29.7834 37.4764 31.0018C36.6522 31.7088 35.7426 32.147 34.9372 32.381C34.6582 33.7662 33.9604 35.3272 32.899 36.6552C31.4534 38.4638 29.2064 39.9922 26.185 39.9922C23.7644 39.9922 21.859 38.6536 20.635 37.3702C20.4112 37.1354 20.2038 36.8964 20.0142 36.6586C19.8244 36.8964 19.6172 37.1354 19.3932 37.3702C18.1692 38.6536 16.2638 39.9922 13.8432 39.9922C10.8219 39.9922 8.57498 38.4638 7.12938 36.6552C6.06788 35.3272 5.37014 33.7662 5.09114 32.381C4.28574 32.147 3.37612 31.7088 2.552 31.0018C1.13162 29.7834 0.0273438 27.8216 0.0273438 24.9326C0.0273438 22.4188 0.326464 20.4456 1.17668 19.0762C1.62696 18.3508 2.22542 17.8042 2.96572 17.455C3.00934 17.4346 3.05314 17.4148 3.09712 17.3958C2.88612 16.6616 2.77602 15.8948 2.7422 15.1425C2.67616 13.6729 2.8949 12.142 3.33204 10.7801C3.7627 9.43846 4.44648 8.13492 5.40804 7.23262C6.01184 6.66602 6.75862 6.23768 7.59894 6.09876C7.99638 4.41904 9.01064 3.0304 10.3047 2.02302ZM12.1475 4.39028C11.056 5.24 10.4169 6.37192 10.4169 7.67512C10.4169 8.15736 10.185 8.6102 9.79378 8.8921C9.40254 9.17402 8.89962 9.25064 8.44216 9.09802C8.16736 9.00634 7.87816 9.0287 7.46088 9.42026C6.9984 9.85424 6.52758 10.6406 6.1885 11.697C5.8559 12.7332 5.68976 13.9084 5.73918 15.0078C5.78922 16.121 6.05392 17.043 6.47052 17.6684C6.54024 17.7732 6.59558 17.8846 6.6364 18H8.80058C11.8089 18 14.2729 20.3306 14.4857 23.2846C15.9597 23.8742 17.001 25.3154 17.001 27C17.001 29.2092 15.2101 31 13.001 31C10.7918 31 9.00098 29.2092 9.00098 27C9.00098 25.3326 10.0212 23.9034 11.4716 23.3028C11.2795 22 10.1568 21 8.80058 21H3.60058C3.58376 21 3.56702 20.9998 3.55034 20.9992C3.2518 21.6952 3.02734 22.898 3.02734 24.9326C3.02734 26.9744 3.77046 28.0944 4.50536 28.725C5.31182 29.4168 6.19718 29.596 6.4537 29.596C7.28214 29.596 7.9537 30.2676 7.9537 31.096C7.9537 31.9342 8.4173 33.4616 9.4728 34.7822C10.4904 36.0552 11.9382 36.9922 13.8432 36.9922C15.1174 36.9922 16.291 36.2762 17.2222 35.2998C17.6758 34.8242 18.028 34.3302 18.259 33.9294C18.3748 33.7286 18.4496 33.5694 18.4908 33.4638L18.5012 33.4366V28.5258C18.501 28.5172 18.501 28.5086 18.501 28.5C18.501 28.4914 18.501 28.4828 18.5012 28.4742V14.5H16.7102C16.1168 15.9659 14.6797 17 13.001 17C10.7918 17 9.00098 15.2091 9.00098 13C9.00098 10.7909 10.7918 9 13.001 9C14.6797 9 16.1168 10.0341 16.7102 11.5H18.5012V6.4472L18.5008 6.42452C18.5002 6.40168 18.499 6.36298 18.4962 6.31076C18.4906 6.20586 18.4788 6.04892 18.455 5.8579C18.4064 5.46808 18.3114 4.97502 18.1348 4.50336C17.9556 4.02542 17.7226 3.64938 17.4454 3.40282C17.1994 3.18386 16.861 3.01172 16.3064 3.01172C14.7741 3.01172 13.2553 3.52792 12.1475 4.39028ZM21.5272 30V33.4366L21.5374 33.4638C21.5788 33.5694 21.6536 33.7286 21.7692 33.9294C22.0002 34.3302 22.3524 34.8242 22.806 35.2998C23.7374 36.2762 24.911 36.9922 26.185 36.9922C28.09 36.9922 29.538 36.0552 30.5556 34.7822C31.611 33.4616 32.0746 31.9342 32.0746 31.096C32.0746 30.2676 32.7462 29.596 33.5746 29.596C33.8312 29.596 34.7164 29.4168 35.523 28.725C36.2578 28.0944 37.001 26.9744 37.001 24.9326C37.001 22.5158 36.6842 21.2728 36.303 20.6586C36.1374 20.392 35.9662 20.2548 35.7828 20.1684C35.5798 20.0726 35.2766 20 34.8062 20C34.2532 20 33.745 19.6956 33.4838 19.208C33.2228 18.7204 33.2512 18.1288 33.5578 17.6684C33.9744 17.043 34.2392 16.121 34.2892 15.0078C34.3386 13.9084 34.1724 12.7332 33.8398 11.697C33.5008 10.6406 33.03 9.85424 32.5674 9.42026C32.1502 9.0287 31.861 9.00634 31.5862 9.09802C31.1288 9.25064 30.6258 9.17402 30.2346 8.8921C29.8432 8.6102 29.6114 8.15736 29.6114 7.67512C29.6114 6.37192 28.9722 5.24 27.8808 4.39028C26.773 3.52792 25.2542 3.01172 23.7218 3.01172C23.1674 3.01172 22.829 3.18386 22.5828 3.40282C22.3058 3.64938 22.0726 4.02542 21.8936 4.50336C21.717 4.97502 21.622 5.46808 21.5732 5.8579C21.5494 6.04892 21.5378 6.20586 21.5322 6.31076C21.5294 6.36298 21.5282 6.40168 21.5276 6.42452L21.5272 6.4472V27H22.801C24.2922 27 25.501 25.7912 25.501 24.3V20.7092C24.035 20.1158 23.001 18.6786 23.001 17C23.001 14.7909 24.7918 13 27.001 13C29.2102 13 31.001 14.7909 31.001 17C31.001 18.6786 29.9668 20.1158 28.501 20.7092V24.3C28.501 27.448 25.949 30 22.801 30H21.5272ZM13.001 12C12.4487 12 12.001 12.4477 12.001 13C12.001 13.5523 12.4487 14 13.001 14C13.5533 14 14.001 13.5523 14.001 13C14.001 12.4477 13.5533 12 13.001 12ZM12.001 27C12.001 27.5522 12.4487 28 13.001 28C13.5533 28 14.001 27.5522 14.001 27C14.001 26.4478 13.5533 26 13.001 26C12.4487 26 12.001 26.4478 12.001 27ZM26.001 17C26.001 17.5522 26.4486 18 27.001 18C27.5532 18 28.001 17.5522 28.001 17C28.001 16.4478 27.5532 16 27.001 16C26.4486 16 26.001 16.4478 26.001 17Z" fill="white"/>
</svg>
