<svg width="24" height="24" viewBox="0 0 24 24" fill="none" xmlns="http://www.w3.org/2000/svg">
<path d="M19.9515 3.70128H16.2777V3.14094C16.2777 1.96047 15.3587 1 14.2292 1H10.7708C9.64131 1 8.72232 1.96047 8.72232 3.14094V3.70128H5.04848C3.91899 3.70128 3 4.66174 3 5.84221V7.37926C3 8.4608 3.77418 9.34819 4.77229 9.49067V19.3825C4.77229 21.3773 6.32489 23 8.23351 23H16.7665C18.6751 23 20.2277 21.3773 20.2277 19.3825V9.49067C21.2258 9.34819 22 8.4608 22 7.37926V5.84221C22 4.66174 21.081 3.70128 19.9515 3.70128ZM9.99379 3.14094C9.99379 2.69356 10.3427 2.32886 10.7708 2.32886H14.2292C14.6573 2.32886 15.0062 2.69356 15.0062 3.14094V3.70128H9.99308L9.99379 3.14094ZM16.7665 21.6711H8.23351C7.02632 21.6711 6.04376 20.6442 6.04376 19.3825V9.5202H18.9562V19.3825C18.9562 20.6442 17.9744 21.6711 16.7665 21.6711ZM20.7285 7.37926C20.7285 7.82664 20.3796 8.19134 19.9515 8.19134H5.04848C4.62042 8.19134 4.27147 7.82664 4.27147 7.37926V5.84221C4.27147 5.39483 4.62042 5.03013 5.04848 5.03013H19.9522C20.3803 5.03013 20.7292 5.39483 20.7292 5.84221L20.7285 7.37926Z" fill="#ED1D23"/>
<path d="M10 11C9.44778 11 9 11.2952 9 11.6593V18.3407C9 18.7048 9.44778 19 10 19C10.5522 19 11 18.7048 11 18.3407V11.6593C11 11.2952 10.5522 11 10 11Z" fill="#ED1D23"/>
<path d="M15 11C14.4478 11 14 11.2952 14 11.6593V18.3407C14 18.7048 14.4478 19 15 19C15.5522 19 16 18.7048 16 18.3407V11.6593C16 11.2952 15.5522 11 15 11Z" fill="#ED1D23"/>
</svg>
