<svg width="48" height="48" viewBox="0 0 48 48" fill="none" xmlns="http://www.w3.org/2000/svg">
<path d="M15.5 23C14.6716 23 14 23.6716 14 24.5C14 25.3284 14.6716 26 15.5 26C16.3284 26 17 25.3284 17 24.5C17 23.6716 16.3284 23 15.5 23ZM14 30.5C14 29.6716 14.6716 29 15.5 29C16.3284 29 17 29.6716 17 30.5C17 31.3284 16.3284 32 15.5 32C14.6716 32 14 31.3284 14 30.5ZM20 24.5C20 23.6716 20.6716 23 21.5 23H27.6076C28.436 23 29.1076 23.6716 29.1076 24.5C29.1076 25.3284 28.436 26 27.6076 26H21.5C20.6716 26 20 25.3284 20 24.5ZM21.5 29C20.6716 29 20 29.6716 20 30.5C20 31.3284 20.6716 32 21.5 32H27.6076C28.436 32 29.1076 31.3284 29.1076 30.5C29.1076 29.6716 28.436 29 27.6076 29H21.5ZM12.5 4C10.0147 4 8 6.01472 8 8.5V34.5C8 36.9852 10.0147 39 12.5 39H30.5C32.9852 39 35 36.9852 35 34.5V17.7377C35 16.5442 34.5258 15.3996 33.682 14.5557L24.4442 5.31802C23.6004 4.4741 22.4558 4 21.2624 4H12.5ZM11 8.5C11 7.67158 11.6716 7 12.5 7H21.0078V13.4951C21.0078 15.9803 23.0226 17.9951 25.5078 17.9951H32V34.5C32 35.3284 31.3284 36 30.5 36H12.5C11.6716 36 11 35.3284 11 34.5V8.5ZM24.0078 13.4951V9.12418L29.8786 14.9951H25.5078C24.6794 14.9951 24.0078 14.3235 24.0078 13.4951ZM17.5018 44C15.5424 44 13.8756 42.7478 13.2578 41H30.5018C34.0916 41 37.0018 38.0898 37.0018 34.5V17.8738L38.6838 19.5558C39.5276 20.3996 40.0018 21.5442 40.0018 22.7378V34.5C40.0018 39.7468 35.7484 44 30.5018 44H17.5018Z" fill="#005495"/>
</svg>
