<svg width="48" height="48" viewBox="0 0 48 48" fill="none" xmlns="http://www.w3.org/2000/svg">
<path d="M8 11C8 7.134 11.134 4 15 4C18.866 4 22 7.134 22 11C22 14.1791 19.8807 16.8632 16.9779 17.7167C18.3536 22.2224 22.544 25.5 27.5 25.5H28.161C28.8478 22.3548 31.6488 20 35 20C38.866 20 42 23.134 42 27C42 30.866 38.866 34 35 34C31.6488 34 28.8478 31.6452 28.161 28.5H27.5C23.038 28.5 19.0637 26.4126 16.5 23.161V30.161C19.6452 30.8478 22 33.6488 22 37C22 40.866 18.866 44 15 44C11.134 44 8 40.866 8 37C8 33.6488 10.3548 30.8478 13.5 30.161V17.8389C10.3548 17.1522 8 14.3511 8 11ZM15 7C12.7909 7 11 8.79086 11 11C11 13.2091 12.7909 15 15 15C17.2091 15 19 13.2091 19 11C19 8.79086 17.2091 7 15 7ZM15 33C12.7909 33 11 34.7908 11 37C11 39.2092 12.7909 41 15 41C17.2091 41 19 39.2092 19 37C19 34.7908 17.2091 33 15 33ZM31 27C31 29.2092 32.7908 31 35 31C37.2092 31 39 29.2092 39 27C39 24.7908 37.2092 23 35 23C32.7908 23 31 24.7908 31 27Z" fill="white"/>
</svg>
