<svg width="32" height="40" viewBox="0 0 32 40" fill="none" xmlns="http://www.w3.org/2000/svg">
<path d="M12.8334 12C10.164 12 8 14.164 8 16.8334C8 18.5822 9.41776 20 11.1667 20H20.8334C22.5822 20 24 18.5822 24 16.8334C24 14.164 21.836 12 19.1666 12H12.8334ZM11 16.8334C11 15.8208 11.8208 15 12.8334 15H19.1666C20.1792 15 21 15.8208 21 16.8334C21 16.9254 20.9254 17 20.8334 17H11.1667C11.0746 17 11 16.9254 11 16.8334ZM16 0C12.0774 0 8.8582 3.01132 8.52792 6.8483C3.45588 9.53188 0 14.8624 0 21V33.5C0 37.0898 2.91014 40 6.5 40H25.5C29.0898 40 32 37.0898 32 33.5V21C32 14.8624 28.5442 9.53188 23.472 6.8483C23.1418 3.01132 19.9226 0 16 0ZM29 24H3V21C3 13.8203 8.8203 8 16 8C23.1798 8 29 13.8203 29 21V24ZM8 30.5C8 31.3284 8.67158 32 9.5 32C10.3284 32 11 31.3284 11 30.5V27.4286H29V33.5C29 35.433 27.433 37 25.5 37H6.5C4.567 37 3 35.433 3 33.5V27.4286H8V30.5ZM16 5C14.6046 5 13.251 5.17862 11.9607 5.51424C12.6944 4.0248 14.2274 3 16 3C17.7726 3 19.3056 4.0248 20.0392 5.51424C18.749 5.17862 17.3954 5 16 5Z" fill="white"/>
</svg>
